<svg data-v-fde0c5aa="" xmlns="http://www.w3.org/2000/svg" viewBox="0 0 300 300" class="iconAboveSlogan"><!----><defs data-v-fde0c5aa=""><!----></defs><rect data-v-fde0c5aa="" fill="#DB3860" x="0" y="0" width="300px" height="300px" class="logo-background-square"></rect><defs data-v-fde0c5aa=""><!----></defs><g data-v-fde0c5aa="" id="92e42fed-fef3-4c06-8980-07c7471ee98e" fill="#ffffff" transform="matrix(7.475156916659175,0,0,7.475156916659175,10.102438277990277,140.92831723445124)"><path d="M0.34 5.47L3.54 5.47L3.54 13.65L4.76 13.65L4.76 5.47L7.97 5.47L7.97 4.40L0.34 4.40ZM13.02 13.75L13.24 12.77C12.39 12.92 12.45 12.42 12.45 11.91L12.45 9.37C12.45 7.74 11.77 7.03 10.12 7.03C8.26 7.03 7.41 7.81 7.56 9.04L8.67 9.24C8.60 8.29 9.17 7.95 10.04 7.95C11.03 7.95 11.33 8.41 11.33 9.52L11.33 9.88C8.90 9.90 7.34 10.64 7.34 12.11C7.34 13.29 8.33 13.85 9.37 13.85C10.37 13.85 11.13 13.29 11.44 12.71C11.48 13.30 11.80 13.90 13.02 13.75ZM11.33 11.42C11.27 12.25 10.43 12.92 9.58 12.92C8.92 12.92 8.54 12.57 8.54 12.03C8.54 11.20 9.35 10.75 11.33 10.74ZM18.55 13.65L19.99 13.65L17.12 10.12L20.03 7.22L18.59 7.22L16.09 9.72L15.81 9.72L15.81 3.60L14.69 3.60L14.69 13.65L15.81 13.65L15.81 10.61L16.11 10.61ZM26.57 13.75L26.80 12.77C25.94 12.92 26.00 12.42 26.00 11.91L26.00 9.37C26.00 7.74 25.33 7.03 23.67 7.03C21.81 7.03 20.96 7.81 21.11 9.04L22.22 9.24C22.15 8.29 22.72 7.95 23.59 7.95C24.58 7.95 24.88 8.41 24.88 9.52L24.88 9.88C22.46 9.90 20.89 10.64 20.89 12.11C20.89 13.29 21.88 13.85 22.92 13.85C23.93 13.85 24.68 13.29 24.99 12.71C25.03 13.30 25.35 13.90 26.57 13.75ZM24.88 11.42C24.82 12.25 23.98 12.92 23.13 12.92C22.47 12.92 22.09 12.57 22.09 12.03C22.09 11.20 22.90 10.75 24.88 10.74ZM28.24 13.65L29.36 13.65L29.36 3.60L28.24 3.60ZM34.12 13.85C36.20 13.85 37.09 12.32 37.09 10.33C37.09 8.25 36.09 7.03 34.12 7.03C32.07 7.03 31.12 8.44 31.12 10.33C31.12 12.47 32.00 13.85 34.12 13.85ZM34.12 12.92C32.96 12.92 32.33 12.08 32.33 10.47C32.33 8.88 32.96 7.95 34.12 7.95C35.27 7.95 35.88 8.85 35.88 10.47C35.88 11.96 35.27 12.92 34.12 12.92Z"></path></g><defs data-v-fde0c5aa=""><!----></defs><g data-v-fde0c5aa="" id="dd5940f1-e374-4484-9ec9-3b849d37912b" stroke="none" fill="#1B3A55" transform="matrix(1.9614085968131747,0,0,1.9614085968131747,87.2349249019784,32.15436561274727)"><path d="M51 8v4a4 4 0 0 0 4 4h5V8zm8 4h-2v-1h-1V9h2a1 1 0 0 1 1 1zM57 4h-6v2h8.816A3 3 0 0 0 57 4zM49 26v.586l-1 1L42.414 22 44 20.414l5.028 5.028c-.014.185-.028.37-.028.558zm-14.586 7H36v1.586zM25.5 24.914l6.036 6.036c.022.022.052.03.075.05h-12.2zM29.586 33L28 34.586V33zm3.288-2c.024-.02.053-.028.076-.05l7-7a5.282 5.282 0 0 0 .7-.883L46.586 29l-2 2zm9.712-12l-1.115 1.115A5.213 5.213 0 0 0 40.329 17h.257zM25.95 17.95a3.245 3.245 0 0 1 4.586 0l1 1a1 1 0 0 0 1.414 0l1-1a3.243 3.243 0 0 1 4.586 4.586l-6.293 6.293-6.293-6.293a3.247 3.247 0 0 1 0-4.586zm-2.835 3.35a5.205 5.205 0 0 0 1.016 2.156L18 29.586 16.414 28zM9.153 60H5v-4h4.82zM5 54V41h7.125l1.733 13zm8-15H4V21h4a4.994 4.994 0 0 1 4.668 3.254l-.961-.961-.51-.51A3.108 3.108 0 0 0 5.892 25a3.077 3.077 0 0 0 .939 2.2A2049.5 2049.5 0 0 0 13 33.186zM8.225 25.771a1.106 1.106 0 0 1-.008-1.571 1.11 1.11 0 0 1 1.566 0l.51.51 4 4 4 4A1 1 0 0 0 19 33h7v2h-8.163c-.924-.824-4.425-4.185-9.612-9.229zM32 38.586L29.414 36 32 33.414 34.586 36zM46.163 35H38v-2h7a1 1 0 0 0 .707-.293l8.51-8.51a1.108 1.108 0 0 1 1.891.792 1.094 1.094 0 0 1-.333.782c-5.187 5.044-8.688 8.405-9.612 9.229zM51 33.191a2049.5 2049.5 0 0 0 6.169-5.986 3.1 3.1 0 0 0 .028-4.422 3.11 3.11 0 0 0-4.394 0l-1.471 1.471A4.994 4.994 0 0 1 56 21h4v18h-9zM59 60h-5.046l-.905-19H59zM4 16v-2.829A3.006 3.006 0 0 1 6 16zm5 0H8a5 5 0 0 0-3.006-4.58L8.414 8H13v4a4 4 0 0 1-4 4zM7 4h3a3 3 0 0 1 2.816 2H8a1 1 0 0 0-.707.293L4 9.586V7a3 3 0 0 1 3-3z"></path></g><defs data-v-fde0c5aa=""><!----></defs><g data-v-fde0c5aa="" id="af13de2c-789b-4573-b008-45ad6a13b531" fill="#ffffff" transform="matrix(0.47276109696799157,0,0,0.47276109696799157,46.73715798088459,253.1638744070934)"><path d="M3.54 12.41L0.52 12.41L0.52 11.87L0.66 11.87L0.66 11.87Q1.24 11.87 1.36 11.77L1.36 11.77L1.36 11.77Q1.48 11.68 1.50 11.21L1.50 11.21L1.63 4.38L1.63 4.38Q1.63 4.35 1.63 4.28L1.63 4.28L1.63 4.28Q1.64 4.21 1.64 4.17L1.64 4.17L1.64 4.01L1.64 4.01Q1.64 3.76 1.57 3.71L1.57 3.71L1.57 3.71Q1.47 3.64 1.24 3.64L1.24 3.64L0.53 3.64L0.52 3.08L2.63 3.08L5.82 10.55L8.96 3.08L11.20 3.08L11.20 3.64L10.73 3.64L10.73 3.64Q10.27 3.64 10.15 3.71L10.15 3.71L10.15 3.71Q9.99 3.79 9.99 4.08L9.99 4.08L9.99 11.22L9.99 11.22Q9.99 11.68 10.11 11.77L10.11 11.77L10.11 11.77Q10.22 11.87 10.85 11.87L10.85 11.87L11.13 11.87L11.14 12.41L7.75 12.41L7.72 11.87L8.00 11.87L8.00 11.87Q8.62 11.87 8.74 11.77L8.74 11.77L8.74 11.77Q8.86 11.66 8.86 11.25L8.86 11.25L8.86 4.83L6.71 9.91L5.85 12.02L5.85 12.02Q5.71 12.37 5.67 12.44L5.67 12.44L5.67 12.44Q5.63 12.51 5.56 12.51L5.56 12.51L5.56 12.51Q5.46 12.51 5.01 11.52L5.01 11.52L2.20 5.01L2.14 11.39L2.14 11.39Q2.14 11.74 2.34 11.80L2.34 11.80L2.34 11.80Q2.58 11.87 3.54 11.87L3.54 11.87L3.54 12.41ZM18.88 12.41L18.87 11.87L19.04 11.87L19.04 11.87Q19.43 11.87 19.56 11.73L19.56 11.73L19.56 11.73Q19.68 11.57 20.02 10.83L20.02 10.83L20.92 8.82L21.50 7.53L21.50 7.53Q21.77 6.97 21.81 6.86L21.81 6.86L21.81 6.86Q21.88 6.70 21.93 6.60L21.93 6.60L21.93 6.60Q21.98 6.51 21.99 6.45L21.99 6.45L22.09 6.21L23.52 2.74L23.81 2.74L23.81 2.74Q24.66 4.98 26.85 10.25L26.85 10.25L26.85 10.25Q27.30 11.34 27.49 11.64L27.49 11.64L27.49 11.64Q27.63 11.87 28.07 11.87L28.07 11.87L28.28 11.87L28.27 12.41L25.07 12.41L25.09 11.87L25.50 11.87L25.50 11.87Q26.12 11.87 26.12 11.70L26.12 11.70L26.12 11.70Q26.12 11.63 25.98 11.27L25.98 11.27L24.94 8.72L21.70 8.72L20.59 11.18L20.59 11.18Q20.45 11.50 20.45 11.63L20.45 11.63L20.45 11.63Q20.45 11.79 20.55 11.83L20.55 11.83L20.55 11.83Q20.64 11.87 21.03 11.87L21.03 11.87L21.60 11.87L21.60 12.41L18.88 12.41ZM23.38 4.79L21.96 8.10L24.71 8.10L23.38 4.79ZM36.03 3.64L36.01 3.08L38.19 3.08L43.92 10.48L43.92 4.14L43.92 4.14Q43.92 3.81 43.77 3.72L43.77 3.72L43.77 3.72Q43.61 3.64 43.16 3.64L43.16 3.64L42.66 3.64L42.69 3.08L45.67 3.08L45.67 3.64L45.35 3.64L45.35 3.64Q44.88 3.64 44.73 3.75L44.73 3.75L44.73 3.75Q44.58 3.86 44.58 4.25L44.58 4.25L44.58 12.32L44.58 12.47L44.58 12.47Q44.58 12.52 44.57 12.57L44.57 12.57L44.57 12.57Q44.56 12.61 44.52 12.64L44.52 12.64L44.52 12.64Q44.51 12.65 44.45 12.65L44.45 12.65L44.26 12.65L44.20 12.65L44.17 12.65L44.15 12.64L44.15 12.64Q44.12 12.64 44.11 12.63L44.11 12.63L44.11 12.63Q44.09 12.61 44.09 12.60L44.09 12.60L44.09 12.60Q44.09 12.58 44.08 12.57L44.08 12.57L44.08 12.57Q44.05 12.54 44.02 12.50L44.02 12.50L44.02 12.50Q44.01 12.48 43.99 12.45L43.99 12.45L43.99 12.45Q43.97 12.41 43.96 12.40L43.96 12.40L37.85 4.56L37.92 11.22L37.92 11.22Q37.92 11.67 38.08 11.77L38.08 11.77L38.08 11.77Q38.24 11.87 38.95 11.87L38.95 11.87L39.19 11.87L39.19 12.41L36.25 12.41L36.25 11.87L36.67 11.87L36.67 11.87Q37.05 11.87 37.16 11.76L37.16 11.76L37.16 11.76Q37.26 11.66 37.26 11.25L37.26 11.25L37.26 3.80L37.12 3.64L36.03 3.64ZM53.79 7.83L53.79 7.83L53.79 7.83Q53.79 6.62 54.20 5.68L54.20 5.68L54.20 5.68Q54.61 4.72 55.30 4.12L55.30 4.12L55.30 4.12Q55.99 3.51 56.85 3.19L56.85 3.19L56.85 3.19Q57.70 2.88 58.65 2.88L58.65 2.88L58.65 2.88Q59.90 2.88 60.96 3.40L60.96 3.40L60.96 3.40Q62.04 3.93 62.75 5.07L62.75 5.07L62.75 5.07Q63.44 6.17 63.45 7.75L63.45 7.75L63.45 7.75Q63.45 8.70 63.14 9.54L63.14 9.54L63.14 9.54Q62.84 10.38 62.23 11.10L62.23 11.10L62.23 11.10Q61.63 11.81 60.69 12.22L60.69 12.22L60.69 12.22Q59.73 12.63 58.54 12.64L58.54 12.64L58.54 12.64Q57.40 12.64 56.46 12.23L56.46 12.23L56.46 12.23Q55.53 11.83 54.97 11.14L54.97 11.14L54.97 11.14Q54.39 10.45 54.10 9.60L54.10 9.60L54.10 9.60Q53.79 8.72 53.79 7.83ZM55.05 7.38L55.05 7.38L55.05 7.38Q55.05 8.52 55.48 9.60L55.48 9.60L55.48 9.60Q55.88 10.64 56.81 11.33L56.81 11.33L56.81 11.33Q57.72 12.03 58.91 12.04L58.91 12.04L58.91 12.04Q60.29 12.04 61.22 11.01L61.22 11.01L61.22 11.01Q62.17 9.97 62.17 8.10L62.17 8.10L62.17 8.10Q62.17 5.99 61.01 4.72L61.01 4.72L61.01 4.72Q59.86 3.46 58.35 3.45L58.35 3.45L58.35 3.45Q57.83 3.45 57.29 3.65L57.29 3.65L57.29 3.65Q56.75 3.85 56.24 4.25L56.24 4.25L56.24 4.25Q55.69 4.68 55.37 5.48L55.37 5.48L55.37 5.48Q55.05 6.27 55.05 7.38ZM74.73 12.41L71.71 12.41L71.71 11.87L71.85 11.87L71.85 11.87Q72.43 11.87 72.55 11.77L72.55 11.77L72.55 11.77Q72.67 11.68 72.69 11.21L72.69 11.21L72.82 4.38L72.82 4.38Q72.82 4.35 72.82 4.28L72.82 4.28L72.82 4.28Q72.83 4.21 72.83 4.17L72.83 4.17L72.83 4.01L72.83 4.01Q72.83 3.76 72.75 3.71L72.75 3.71L72.75 3.71Q72.66 3.64 72.43 3.64L72.43 3.64L71.72 3.64L71.71 3.08L73.82 3.08L77.01 10.55L80.15 3.08L82.39 3.08L82.39 3.64L81.92 3.64L81.92 3.64Q81.46 3.64 81.34 3.71L81.34 3.71L81.34 3.71Q81.18 3.79 81.18 4.08L81.18 4.08L81.18 11.22L81.18 11.22Q81.18 11.68 81.30 11.77L81.30 11.77L81.30 11.77Q81.41 11.87 82.04 11.87L82.04 11.87L82.32 11.87L82.33 12.41L78.93 12.41L78.91 11.87L79.19 11.87L79.19 11.87Q79.81 11.87 79.93 11.77L79.93 11.77L79.93 11.77Q80.05 11.66 80.05 11.25L80.05 11.25L80.05 4.83L77.90 9.91L77.04 12.02L77.04 12.02Q76.90 12.37 76.86 12.44L76.86 12.44L76.86 12.44Q76.82 12.51 76.75 12.51L76.75 12.51L76.75 12.51Q76.65 12.51 76.20 11.52L76.20 11.52L73.39 5.01L73.33 11.39L73.33 11.39Q73.33 11.74 73.53 11.80L73.53 11.80L73.53 11.80Q73.77 11.87 74.73 11.87L74.73 11.87L74.73 12.41ZM90.07 3.64L90.06 3.08L97.27 3.08L97.27 3.08Q97.28 4.14 97.34 5.28L97.34 5.28L96.79 5.30L96.79 5.30Q96.78 4.66 96.72 4.25L96.72 4.25L96.72 4.25Q96.68 3.89 96.63 3.80L96.63 3.80L96.63 3.80Q96.57 3.71 96.46 3.69L96.46 3.69L96.46 3.69Q96.36 3.68 95.77 3.68L95.77 3.68L93.39 3.68L93.39 3.68Q92.85 3.68 92.70 3.77L92.70 3.77L92.70 3.77Q92.58 3.86 92.58 4.33L92.58 4.33L92.58 6.28L92.58 6.28Q92.58 6.69 92.63 6.76L92.63 6.76L92.63 6.76Q92.70 6.84 93.04 6.84L93.04 6.84L95.16 6.84L95.16 6.84Q95.52 6.84 95.60 6.73L95.60 6.73L95.60 6.73Q95.68 6.63 95.69 6.14L95.69 6.14L95.69 5.61L96.20 5.63L96.20 8.97L95.69 8.97L95.69 8.24L95.69 8.24Q95.69 7.66 95.61 7.57L95.61 7.57L95.61 7.57Q95.53 7.46 95.18 7.46L95.18 7.46L93.08 7.46L93.08 7.46Q92.75 7.46 92.66 7.54L92.66 7.54L92.66 7.54Q92.58 7.63 92.58 7.89L92.58 7.89L92.58 11.20L92.58 11.20Q92.58 11.57 92.66 11.67L92.66 11.67L92.66 11.67Q92.75 11.77 93.02 11.77L93.02 11.77L93.02 11.77Q95.94 11.75 96.47 11.69L96.47 11.69L96.47 11.69Q96.99 11.63 97.07 11.38L97.07 11.38L97.08 11.36L97.08 11.35L97.31 10.17L97.79 10.25L97.44 12.41L90.34 12.41L90.34 11.87L90.71 11.87L90.71 11.87Q91.27 11.87 91.35 11.80L91.35 11.80L91.35 11.80Q91.44 11.72 91.44 11.33L91.44 11.33L91.44 4.24L91.44 4.24Q91.44 3.82 91.29 3.73L91.29 3.73L91.29 3.73Q91.12 3.64 90.47 3.64L90.47 3.64L90.07 3.64ZM106.03 3.64L105.66 3.64L105.66 3.08L109.15 3.08L109.15 3.64L108.79 3.64L108.79 3.64Q108.28 3.64 108.13 3.75L108.13 3.75L108.13 3.75Q107.99 3.84 107.99 4.25L107.99 4.25L107.99 6.91L112.54 6.91L112.54 4.14L112.54 4.14Q112.54 3.77 112.44 3.71L112.44 3.71L112.44 3.71Q112.33 3.64 111.81 3.64L111.81 3.64L111.22 3.64L111.21 3.08L114.76 3.08L114.76 3.64L114.37 3.64L114.37 3.64Q113.89 3.64 113.78 3.74L113.78 3.74L113.78 3.74Q113.67 3.83 113.67 4.22L113.67 4.22L113.67 11.29L113.67 11.29Q113.67 11.67 113.81 11.77L113.81 11.77L113.81 11.77Q113.97 11.87 114.52 11.87L114.52 11.87L114.99 11.87L114.97 12.41L111.49 12.41L111.47 11.87L111.88 11.87L111.88 11.87Q112.35 11.87 112.44 11.77L112.44 11.77L112.44 11.77Q112.54 11.67 112.54 11.25L112.54 11.25L112.54 7.58L107.99 7.58L107.99 11.25L107.99 11.25Q107.99 11.67 108.14 11.77L108.14 11.77L108.14 11.77Q108.29 11.87 109.00 11.87L109.00 11.87L109.40 11.87L109.38 12.41L105.79 12.41L105.78 11.87L106.14 11.87L106.14 11.87Q106.69 11.87 106.76 11.80L106.76 11.80L106.76 11.80Q106.85 11.70 106.85 11.25L106.85 11.25L106.85 4.09L106.85 4.09Q106.85 3.76 106.72 3.71L106.72 3.71L106.72 3.71Q106.54 3.64 106.03 3.64L106.03 3.64ZM122.87 3.64L122.87 3.64L122.88 3.08L126.02 3.08L126.02 3.64L125.74 3.64L125.74 3.64Q125.29 3.64 125.18 3.66L125.18 3.66L125.18 3.66Q125.01 3.71 125.01 3.82L125.01 3.82L125.01 3.82Q125.01 3.89 125.26 4.31L125.26 4.31L127.26 7.46L129.71 3.99L129.71 3.99Q129.79 3.83 129.80 3.82L129.80 3.82L129.80 3.82Q129.80 3.64 128.88 3.64L128.88 3.64L128.67 3.64L128.65 3.08L131.20 3.08L131.20 3.64L131.13 3.64L131.13 3.64Q130.78 3.64 130.63 3.72L130.63 3.72L130.63 3.72Q130.48 3.80 130.19 4.22L130.19 4.22L127.46 8.17L127.46 11.22L127.46 11.22Q127.46 11.66 127.57 11.77L127.57 11.77L127.57 11.77Q127.67 11.87 128.28 11.87L128.28 11.87L128.92 11.87L128.90 12.41L124.97 12.41L124.98 11.87L125.54 11.87L125.54 11.87Q126.08 11.87 126.20 11.79L126.20 11.79L126.20 11.79Q126.33 11.70 126.33 11.25L126.33 11.25L126.33 8.06L124.03 4.49L124.03 4.49Q123.61 3.84 123.48 3.73L123.48 3.73L123.48 3.73Q123.38 3.64 122.87 3.64ZM148.78 5.35L148.29 5.33L148.29 5.33Q148.41 4.17 148.49 3.08L148.49 3.08L156.57 3.08L156.57 3.08Q156.49 4.13 156.46 4.53L156.46 4.53L156.46 4.53Q156.42 5.26 156.40 5.32L156.40 5.32L155.90 5.30L155.90 5.30Q155.98 4.34 155.98 4.16L155.98 4.16L155.98 4.16Q155.98 3.88 155.84 3.79L155.84 3.79L155.84 3.79Q155.67 3.69 155.26 3.69L155.26 3.69L153.66 3.69L153.66 3.69Q153.15 3.69 153.03 3.79L153.03 3.79L153.03 3.79Q152.93 3.87 152.93 4.36L152.93 4.36L152.93 11.22L152.93 11.22Q152.93 11.66 153.07 11.76L153.07 11.76L153.07 11.76Q153.23 11.87 153.74 11.87L153.74 11.87L154.30 11.87L154.31 12.41L150.62 12.40L150.62 11.87L150.84 11.87L150.84 11.87Q151.51 11.87 151.66 11.79L151.66 11.79L151.66 11.79Q151.80 11.70 151.80 11.28L151.80 11.28L151.80 4.48L151.80 4.48Q151.80 3.92 151.70 3.80L151.70 3.80L151.70 3.80Q151.60 3.69 151.18 3.69L151.18 3.69L149.71 3.69L149.71 3.69Q149.52 3.69 149.45 3.71L149.45 3.71L149.45 3.71Q149.39 3.72 149.28 3.72L149.28 3.72L149.28 3.72Q149.25 3.72 149.13 3.79L149.13 3.79L149.13 3.79Q149.05 3.84 149.02 3.86L149.02 3.86L149.02 3.86Q149.00 3.88 148.96 3.99L148.96 3.99L148.96 3.99Q148.93 4.05 148.90 4.14L148.90 4.14L148.90 4.14Q148.87 4.21 148.85 4.36L148.85 4.36L148.85 4.36Q148.83 4.59 148.83 4.61L148.83 4.61L148.83 4.61Q148.83 4.80 148.81 4.95L148.81 4.95L148.81 4.95Q148.81 5.02 148.80 5.15L148.80 5.15L148.80 5.15Q148.80 5.29 148.78 5.35L148.78 5.35ZM164.28 10.04L164.28 10.04L164.77 9.98L164.96 10.85L164.96 10.85Q165.07 11.33 165.14 11.41L165.14 11.41L165.14 11.41Q165.20 11.49 165.61 11.64L165.61 11.64L165.61 11.64Q166.46 11.95 167.35 11.95L167.35 11.95L167.35 11.95Q168.14 11.95 168.68 11.49L168.68 11.49L168.68 11.49Q169.21 11.04 169.21 10.26L169.21 10.26L169.21 10.26Q169.21 9.65 168.75 9.21L168.75 9.21L168.75 9.21Q168.27 8.76 167.42 8.30L167.42 8.30L166.84 7.98L166.84 7.98Q166.10 7.55 165.87 7.36L165.87 7.36L165.87 7.36Q165.50 7.08 165.19 6.59L165.19 6.59L165.19 6.59Q164.88 6.10 164.88 5.46L164.88 5.46L164.88 5.46Q164.88 4.39 165.72 3.68L165.72 3.68L165.72 3.68Q166.56 2.97 167.67 2.97L167.67 2.97L167.67 2.97Q167.95 2.97 168.30 3.04L168.30 3.04L168.30 3.04Q168.50 3.08 168.83 3.17L168.83 3.17L169.07 3.25L169.07 3.25Q169.17 3.25 169.21 3.16L169.21 3.16L169.21 3.16Q169.26 3.05 169.26 2.98L169.26 2.98L169.28 2.88L169.76 2.85L169.97 5.41L169.46 5.43L169.34 4.18L169.34 4.18Q168.59 3.62 167.43 3.62L167.43 3.62L167.43 3.62Q166.79 3.62 166.28 4.05L166.28 4.05L166.28 4.05Q165.81 4.47 165.81 5.12L165.81 5.12L165.81 5.12Q165.81 5.72 166.26 6.17L166.26 6.17L166.26 6.17Q166.69 6.60 167.56 7.08L167.56 7.08L168.33 7.50L168.33 7.50Q169.28 8.03 169.81 8.59L169.81 8.59L169.81 8.59Q170.34 9.15 170.34 9.92L170.34 9.92L170.34 9.92Q170.34 10.99 169.49 11.76L169.49 11.76L169.49 11.76Q168.62 12.54 167.17 12.54L167.17 12.54L167.17 12.54Q166.61 12.54 166.10 12.41L166.10 12.41L166.10 12.41Q165.60 12.29 165.55 12.29L165.55 12.29L165.55 12.29Q165.29 12.29 165.29 12.58L165.29 12.58L165.31 12.76L164.83 12.80L164.83 12.80Q164.77 12.41 164.28 10.04ZM178.54 12.41L178.53 11.87L178.70 11.87L178.70 11.87Q179.09 11.87 179.22 11.73L179.22 11.73L179.22 11.73Q179.34 11.57 179.68 10.83L179.68 10.83L180.58 8.82L181.16 7.53L181.16 7.53Q181.43 6.97 181.47 6.86L181.47 6.86L181.47 6.86Q181.54 6.70 181.59 6.60L181.59 6.60L181.59 6.60Q181.64 6.51 181.65 6.45L181.65 6.45L181.75 6.21L183.18 2.74L183.47 2.74L183.47 2.74Q184.32 4.98 186.51 10.25L186.51 10.25L186.51 10.25Q186.96 11.34 187.15 11.64L187.15 11.64L187.15 11.64Q187.29 11.87 187.73 11.87L187.73 11.87L187.94 11.87L187.93 12.41L184.73 12.41L184.75 11.87L185.17 11.87L185.17 11.87Q185.78 11.87 185.78 11.70L185.78 11.70L185.78 11.70Q185.78 11.63 185.64 11.27L185.64 11.27L184.60 8.72L181.36 8.72L180.25 11.18L180.25 11.18Q180.11 11.50 180.11 11.63L180.11 11.63L180.11 11.63Q180.11 11.79 180.21 11.83L180.21 11.83L180.21 11.83Q180.30 11.87 180.69 11.87L180.69 11.87L181.26 11.87L181.26 12.41L178.54 12.41ZM183.04 4.79L181.62 8.10L184.37 8.10L183.04 4.79ZM196.01 3.64L195.62 3.64L195.63 3.08L198.85 3.08L198.85 3.08Q199.99 3.08 200.59 3.21L200.59 3.21L200.59 3.21Q201.23 3.37 201.69 3.75L201.69 3.75L201.69 3.75Q202.70 4.57 202.70 5.71L202.70 5.71L202.70 5.71Q202.70 6.43 202.23 7.04L202.23 7.04L202.23 7.04Q201.74 7.66 200.70 7.92L200.70 7.92L203.39 11.49L203.39 11.49Q203.70 11.87 203.99 11.87L203.99 11.87L204.59 11.87L204.62 12.41L202.59 12.41L199.60 8.10L199.42 8.10L199.42 8.10Q199.38 8.10 199.33 8.11L199.33 8.11L199.33 8.11Q199.27 8.11 199.26 8.11L199.26 8.11L199.26 8.11Q198.38 8.11 197.98 8.03L197.98 8.03L197.98 11.46L197.98 11.46Q197.98 11.76 198.13 11.81L198.13 11.81L198.13 11.81Q198.25 11.87 198.95 11.87L198.95 11.87L199.66 11.87L199.64 12.41L195.91 12.41L195.91 11.87L196.23 11.87L196.23 11.87Q196.70 11.87 196.77 11.81L196.77 11.81L196.77 11.81Q196.85 11.74 196.85 11.46L196.85 11.46L196.85 4.14L196.85 4.14Q196.85 3.82 196.66 3.73L196.66 3.73L196.66 3.73Q196.43 3.64 196.01 3.64L196.01 3.64ZM197.98 4.28L197.98 7.57L197.98 7.57Q198.17 7.70 198.88 7.71L198.88 7.71L198.88 7.71Q200.15 7.71 200.73 7.27L200.73 7.27L200.73 7.27Q201.32 6.84 201.32 5.92L201.32 5.92L201.32 5.92Q201.32 4.92 200.55 4.27L200.55 4.27L200.55 4.27Q199.79 3.64 198.41 3.64L198.41 3.64L198.41 3.64Q198.15 3.64 198.07 3.75L198.07 3.75L198.07 3.75Q197.99 3.84 197.98 4.28L197.98 4.28ZM212.39 12.41L212.37 11.87L212.54 11.87L212.54 11.87Q212.93 11.87 213.06 11.73L213.06 11.73L213.06 11.73Q213.19 11.57 213.52 10.83L213.52 10.83L214.43 8.82L215.00 7.53L215.00 7.53Q215.27 6.97 215.31 6.86L215.31 6.86L215.31 6.86Q215.38 6.70 215.43 6.60L215.43 6.60L215.43 6.60Q215.48 6.51 215.50 6.45L215.50 6.45L215.59 6.21L217.02 2.74L217.31 2.74L217.31 2.74Q218.17 4.98 220.36 10.25L220.36 10.25L220.36 10.25Q220.81 11.34 221.00 11.64L221.00 11.64L221.00 11.64Q221.14 11.87 221.57 11.87L221.57 11.87L221.79 11.87L221.77 12.41L218.58 12.41L218.59 11.87L219.01 11.87L219.01 11.87Q219.63 11.87 219.63 11.70L219.63 11.70L219.63 11.70Q219.63 11.63 219.49 11.27L219.49 11.27L218.45 8.72L215.20 8.72L214.09 11.18L214.09 11.18Q213.96 11.50 213.96 11.63L213.96 11.63L213.96 11.63Q213.96 11.79 214.05 11.83L214.05 11.83L214.05 11.83Q214.15 11.87 214.53 11.87L214.53 11.87L215.11 11.87L215.11 12.41L212.39 12.41ZM216.88 4.79L215.47 8.10L218.21 8.10L216.88 4.79ZM229.63 14.26L229.63 14.26L229.63 14.26Q229.63 14.18 229.78 14.07L229.78 14.07L229.78 14.07Q229.81 14.04 230.12 13.86L230.12 13.86L230.12 13.86Q230.31 13.73 230.46 13.48L230.46 13.48L230.46 13.48Q230.62 13.21 230.61 12.87L230.61 12.87L230.61 12.87Q230.61 12.65 230.51 12.48L230.51 12.48L230.51 12.48Q230.43 12.33 230.30 12.28L230.30 12.28L230.30 12.28Q230.22 12.24 230.10 12.15L230.10 12.15L230.10 12.15Q230.01 12.08 230.01 12.00L230.01 12.00L230.01 12.00Q230.01 11.84 230.29 11.59L230.29 11.59L230.29 11.59Q230.57 11.33 230.65 11.33L230.65 11.33L230.65 11.33Q230.68 11.33 230.88 11.39L230.88 11.39L230.88 11.39Q231 11.43 231.23 11.72L231.23 11.72L231.23 11.72Q231.44 12.00 231.44 12.44L231.44 12.44L231.44 12.44Q231.44 12.86 231.26 13.31L231.26 13.31L231.26 13.31Q231.08 13.76 230.81 14.03L230.81 14.03L230.81 14.03Q230.38 14.46 229.81 14.46L229.81 14.46L229.81 14.46Q229.63 14.46 229.63 14.26ZM252.37 12.41L249.35 12.41L249.35 11.87L249.48 11.87L249.48 11.87Q250.07 11.87 250.19 11.77L250.19 11.77L250.19 11.77Q250.31 11.68 250.33 11.21L250.33 11.21L250.46 4.38L250.46 4.38Q250.46 4.35 250.46 4.28L250.46 4.28L250.46 4.28Q250.47 4.21 250.47 4.17L250.47 4.17L250.47 4.01L250.47 4.01Q250.47 3.76 250.39 3.71L250.39 3.71L250.39 3.71Q250.30 3.64 250.07 3.64L250.07 3.64L249.36 3.64L249.35 3.08L251.46 3.08L254.65 10.55L257.79 3.08L260.03 3.08L260.03 3.64L259.55 3.64L259.55 3.64Q259.10 3.64 258.98 3.71L258.98 3.71L258.98 3.71Q258.82 3.79 258.82 4.08L258.82 4.08L258.82 11.22L258.82 11.22Q258.82 11.68 258.94 11.77L258.94 11.77L258.94 11.77Q259.05 11.87 259.68 11.87L259.68 11.87L259.96 11.87L259.97 12.41L256.57 12.41L256.55 11.87L256.83 11.87L256.83 11.87Q257.45 11.87 257.56 11.77L257.56 11.77L257.56 11.77Q257.69 11.66 257.69 11.25L257.69 11.25L257.69 4.83L255.53 9.91L254.68 12.02L254.68 12.02Q254.54 12.37 254.50 12.44L254.50 12.44L254.50 12.44Q254.45 12.51 254.39 12.51L254.39 12.51L254.39 12.51Q254.29 12.51 253.84 11.52L253.84 11.52L251.03 5.01L250.97 11.39L250.97 11.39Q250.97 11.74 251.17 11.80L251.17 11.80L251.17 11.80Q251.41 11.87 252.37 11.87L252.37 11.87L252.37 12.41ZM267.71 12.41L267.70 11.87L267.87 11.87L267.87 11.87Q268.26 11.87 268.39 11.73L268.39 11.73L268.39 11.73Q268.51 11.57 268.84 10.83L268.84 10.83L269.75 8.82L270.33 7.53L270.33 7.53Q270.59 6.97 270.63 6.86L270.63 6.86L270.63 6.86Q270.70 6.70 270.75 6.60L270.75 6.60L270.75 6.60Q270.81 6.51 270.82 6.45L270.82 6.45L270.92 6.21L272.34 2.74L272.64 2.74L272.64 2.74Q273.49 4.98 275.68 10.25L275.68 10.25L275.68 10.25Q276.13 11.34 276.32 11.64L276.32 11.64L276.32 11.64Q276.46 11.87 276.90 11.87L276.90 11.87L277.11 11.87L277.09 12.41L273.90 12.41L273.92 11.87L274.33 11.87L274.33 11.87Q274.95 11.87 274.95 11.70L274.95 11.70L274.95 11.70Q274.95 11.63 274.81 11.27L274.81 11.27L273.77 8.72L270.53 8.72L269.42 11.18L269.42 11.18Q269.28 11.50 269.28 11.63L269.28 11.63L269.28 11.63Q269.28 11.79 269.38 11.83L269.38 11.83L269.38 11.83Q269.47 11.87 269.86 11.87L269.86 11.87L270.43 11.87L270.43 12.41L267.71 12.41ZM272.21 4.79L270.79 8.10L273.53 8.10L272.21 4.79ZM285.21 3.64L284.84 3.64L284.84 3.08L288.33 3.08L288.33 3.64L287.96 3.64L287.96 3.64Q287.46 3.64 287.31 3.75L287.31 3.75L287.31 3.75Q287.17 3.84 287.16 4.25L287.16 4.25L287.16 6.91L291.72 6.91L291.72 4.14L291.72 4.14Q291.72 3.77 291.62 3.71L291.62 3.71L291.62 3.71Q291.51 3.64 290.99 3.64L290.99 3.64L290.40 3.64L290.38 3.08L293.94 3.08L293.94 3.64L293.55 3.64L293.55 3.64Q293.07 3.64 292.96 3.74L292.96 3.74L292.96 3.74Q292.85 3.83 292.85 4.22L292.85 4.22L292.85 11.29L292.85 11.29Q292.85 11.67 292.99 11.77L292.99 11.77L292.99 11.77Q293.15 11.87 293.69 11.87L293.69 11.87L294.16 11.87L294.15 12.41L290.66 12.41L290.65 11.87L291.06 11.87L291.06 11.87Q291.53 11.87 291.62 11.77L291.62 11.77L291.62 11.77Q291.72 11.67 291.72 11.25L291.72 11.25L291.72 7.58L287.16 7.58L287.16 11.25L287.16 11.25Q287.16 11.67 287.32 11.77L287.32 11.77L287.32 11.77Q287.47 11.87 288.18 11.87L288.18 11.87L288.58 11.87L288.55 12.41L284.97 12.41L284.96 11.87L285.32 11.87L285.32 11.87Q285.87 11.87 285.93 11.80L285.93 11.80L285.93 11.80Q286.03 11.70 286.03 11.25L286.03 11.25L286.03 4.09L286.03 4.09Q286.03 3.76 285.89 3.71L285.89 3.71L285.89 3.71Q285.72 3.64 285.21 3.64L285.21 3.64ZM301.92 12.41L301.90 11.87L302.07 11.87L302.07 11.87Q302.46 11.87 302.59 11.73L302.59 11.73L302.59 11.73Q302.72 11.57 303.05 10.83L303.05 10.83L303.96 8.82L304.53 7.53L304.53 7.53Q304.80 6.97 304.84 6.86L304.84 6.86L304.84 6.86Q304.91 6.70 304.96 6.60L304.96 6.60L304.96 6.60Q305.01 6.51 305.03 6.45L305.03 6.45L305.12 6.21L306.55 2.74L306.84 2.74L306.84 2.74Q307.70 4.98 309.89 10.25L309.89 10.25L309.89 10.25Q310.34 11.34 310.53 11.64L310.53 11.64L310.53 11.64Q310.67 11.87 311.10 11.87L311.10 11.87L311.32 11.87L311.30 12.41L308.11 12.41L308.12 11.87L308.54 11.87L308.54 11.87Q309.16 11.87 309.16 11.70L309.16 11.70L309.16 11.70Q309.16 11.63 309.02 11.27L309.02 11.27L307.98 8.72L304.73 8.72L303.63 11.18L303.63 11.18Q303.49 11.50 303.49 11.63L303.49 11.63L303.49 11.63Q303.49 11.79 303.58 11.83L303.58 11.83L303.58 11.83Q303.68 11.87 304.06 11.87L304.06 11.87L304.64 11.87L304.64 12.41L301.92 12.41ZM306.41 4.79L305.00 8.10L307.74 8.10L306.41 4.79ZM319.05 12.13L319.05 12.13L319.05 12.13Q319.05 12.08 319.14 11.95L319.14 11.95L319.14 11.95Q319.19 11.87 319.43 11.60L319.43 11.60L319.43 11.60Q319.54 11.48 319.61 11.41L319.61 11.41L319.61 11.41Q319.68 11.33 319.71 11.29L319.71 11.29L325.99 4.18L320.28 4.18L320.28 4.18Q320.01 4.18 319.94 4.31L319.94 4.31L319.94 4.31Q319.89 4.43 319.82 5.09L319.82 5.09L319.82 5.09Q319.82 5.11 319.81 5.13L319.81 5.13L319.81 5.13Q319.81 5.16 319.80 5.21L319.80 5.21L319.80 5.21Q319.79 5.26 319.79 5.30L319.79 5.30L319.79 5.30Q319.76 5.53 319.76 5.58L319.76 5.58L319.20 5.55L319.20 5.55Q319.40 4.02 319.42 3.08L319.42 3.08L327.04 3.08L327.04 3.08Q327.48 3.08 327.48 3.21L327.48 3.21L327.48 3.21Q327.48 3.24 327.42 3.36L327.42 3.36L327.42 3.36Q327.39 3.41 327.31 3.55L327.31 3.55L327.31 3.55Q327.28 3.60 327.17 3.75L327.17 3.75L327.17 3.75Q327.11 3.83 327.06 3.90L327.06 3.90L326.99 3.97L320.62 11.25L326.16 11.25L326.16 11.25Q326.73 11.25 326.79 11.17L326.79 11.17L326.79 11.17Q326.90 11.03 327.06 9.95L327.06 9.95L327.59 9.97L327.59 9.97Q327.59 10.01 327.57 10.11L327.57 10.11L327.57 10.11Q327.56 10.21 327.54 10.40L327.54 10.40L327.54 10.40Q327.52 10.60 327.49 10.79L327.49 10.79L327.49 10.79Q327.35 11.87 327.31 12.41L327.31 12.41L319.35 12.41L319.35 12.41Q319.05 12.41 319.05 12.13ZM335.71 7.83L335.71 7.83L335.71 7.83Q335.71 6.62 336.11 5.68L336.11 5.68L336.11 5.68Q336.53 4.72 337.22 4.12L337.22 4.12L337.22 4.12Q337.91 3.51 338.77 3.19L338.77 3.19L338.77 3.19Q339.61 2.88 340.56 2.88L340.56 2.88L340.56 2.88Q341.82 2.88 342.87 3.40L342.87 3.40L342.87 3.40Q343.95 3.93 344.66 5.07L344.66 5.07L344.66 5.07Q345.36 6.17 345.37 7.75L345.37 7.75L345.37 7.75Q345.37 8.70 345.06 9.54L345.06 9.54L345.06 9.54Q344.75 10.38 344.15 11.10L344.15 11.10L344.15 11.10Q343.54 11.81 342.60 12.22L342.60 12.22L342.60 12.22Q341.64 12.63 340.45 12.64L340.45 12.64L340.45 12.64Q339.32 12.64 338.38 12.23L338.38 12.23L338.38 12.23Q337.44 11.83 336.88 11.14L336.88 11.14L336.88 11.14Q336.31 10.45 336.01 9.60L336.01 9.60L336.01 9.60Q335.71 8.72 335.71 7.83ZM336.96 7.38L336.96 7.38L336.96 7.38Q336.96 8.52 337.39 9.60L337.39 9.60L337.39 9.60Q337.80 10.64 338.73 11.33L338.73 11.33L338.73 11.33Q339.64 12.03 340.83 12.04L340.83 12.04L340.83 12.04Q342.20 12.04 343.14 11.01L343.14 11.01L343.14 11.01Q344.09 9.97 344.09 8.10L344.09 8.10L344.09 8.10Q344.09 5.99 342.92 4.72L342.92 4.72L342.92 4.72Q341.78 3.46 340.27 3.45L340.27 3.45L340.27 3.45Q339.75 3.45 339.20 3.65L339.20 3.65L339.20 3.65Q338.66 3.85 338.15 4.25L338.15 4.25L338.15 4.25Q337.61 4.68 337.29 5.48L337.29 5.48L337.29 5.48Q336.96 6.27 336.96 7.38ZM363.33 5.35L362.83 5.33L362.83 5.33Q362.95 4.17 363.04 3.08L363.04 3.08L371.12 3.08L371.12 3.08Q371.03 4.13 371.01 4.53L371.01 4.53L371.01 4.53Q370.97 5.26 370.95 5.32L370.95 5.32L370.45 5.30L370.45 5.30Q370.53 4.34 370.53 4.16L370.53 4.16L370.53 4.16Q370.53 3.88 370.38 3.79L370.38 3.79L370.38 3.79Q370.21 3.69 369.81 3.69L369.81 3.69L368.20 3.69L368.20 3.69Q367.70 3.69 367.58 3.79L367.58 3.79L367.58 3.79Q367.48 3.87 367.47 4.36L367.47 4.36L367.47 11.22L367.47 11.22Q367.47 11.66 367.62 11.76L367.62 11.76L367.62 11.76Q367.77 11.87 368.29 11.87L368.29 11.87L368.85 11.87L368.86 12.41L365.17 12.40L365.17 11.87L365.39 11.87L365.39 11.87Q366.06 11.87 366.20 11.79L366.20 11.79L366.20 11.79Q366.34 11.70 366.34 11.28L366.34 11.28L366.34 4.48L366.34 4.48Q366.34 3.92 366.25 3.80L366.25 3.80L366.25 3.80Q366.15 3.69 365.72 3.69L365.72 3.69L364.25 3.69L364.25 3.69Q364.07 3.69 364 3.71L364 3.71L364 3.71Q363.93 3.72 363.82 3.72L363.82 3.72L363.82 3.72Q363.79 3.72 363.68 3.79L363.68 3.79L363.68 3.79Q363.60 3.84 363.57 3.86L363.57 3.86L363.57 3.86Q363.54 3.88 363.50 3.99L363.50 3.99L363.50 3.99Q363.47 4.05 363.45 4.14L363.45 4.14L363.45 4.14Q363.42 4.21 363.40 4.36L363.40 4.36L363.40 4.36Q363.37 4.59 363.37 4.61L363.37 4.61L363.37 4.61Q363.37 4.80 363.36 4.95L363.36 4.95L363.36 4.95Q363.36 5.02 363.35 5.15L363.35 5.15L363.35 5.15Q363.34 5.29 363.33 5.35L363.33 5.35ZM378.83 10.04L378.83 10.04L379.32 9.98L379.50 10.85L379.50 10.85Q379.61 11.33 379.68 11.41L379.68 11.41L379.68 11.41Q379.75 11.49 380.16 11.64L380.16 11.64L380.16 11.64Q381.00 11.95 381.90 11.95L381.90 11.95L381.90 11.95Q382.68 11.95 383.22 11.49L383.22 11.49L383.22 11.49Q383.76 11.04 383.76 10.26L383.76 10.26L383.76 10.26Q383.76 9.65 383.30 9.21L383.30 9.21L383.30 9.21Q382.82 8.76 381.96 8.30L381.96 8.30L381.39 7.98L381.39 7.98Q380.65 7.55 380.41 7.36L380.41 7.36L380.41 7.36Q380.05 7.08 379.74 6.59L379.74 6.59L379.74 6.59Q379.43 6.10 379.43 5.46L379.43 5.46L379.43 5.46Q379.43 4.39 380.27 3.68L380.27 3.68L380.27 3.68Q381.11 2.97 382.22 2.97L382.22 2.97L382.22 2.97Q382.50 2.97 382.85 3.04L382.85 3.04L382.85 3.04Q383.04 3.08 383.38 3.17L383.38 3.17L383.62 3.25L383.62 3.25Q383.71 3.25 383.76 3.16L383.76 3.16L383.76 3.16Q383.81 3.05 383.81 2.98L383.81 2.98L383.82 2.88L384.30 2.85L384.51 5.41L384.01 5.43L383.89 4.18L383.89 4.18Q383.14 3.62 381.98 3.62L381.98 3.62L381.98 3.62Q381.34 3.62 380.83 4.05L380.83 4.05L380.83 4.05Q380.35 4.47 380.35 5.12L380.35 5.12L380.35 5.12Q380.35 5.72 380.80 6.17L380.80 6.17L380.80 6.17Q381.23 6.60 382.10 7.08L382.10 7.08L382.87 7.50L382.87 7.50Q383.82 8.03 384.36 8.59L384.36 8.59L384.36 8.59Q384.89 9.15 384.89 9.92L384.89 9.92L384.89 9.92Q384.89 10.99 384.04 11.76L384.04 11.76L384.04 11.76Q383.17 12.54 381.71 12.54L381.71 12.54L381.71 12.54Q381.15 12.54 380.65 12.41L380.65 12.41L380.65 12.41Q380.15 12.29 380.09 12.29L380.09 12.29L380.09 12.29Q379.84 12.29 379.84 12.58L379.84 12.58L379.85 12.76L379.37 12.80L379.37 12.80Q379.31 12.41 378.83 10.04ZM393.09 12.41L393.07 11.87L393.24 11.87L393.24 11.87Q393.63 11.87 393.76 11.73L393.76 11.73L393.76 11.73Q393.89 11.57 394.22 10.83L394.22 10.83L395.13 8.82L395.71 7.53L395.71 7.53Q395.97 6.97 396.01 6.86L396.01 6.86L396.01 6.86Q396.08 6.70 396.13 6.60L396.13 6.60L396.13 6.60Q396.18 6.51 396.20 6.45L396.20 6.45L396.29 6.21L397.72 2.74L398.02 2.74L398.02 2.74Q398.87 4.98 401.06 10.25L401.06 10.25L401.06 10.25Q401.51 11.34 401.70 11.64L401.70 11.64L401.70 11.64Q401.84 11.87 402.27 11.87L402.27 11.87L402.49 11.87L402.47 12.41L399.28 12.41L399.29 11.87L399.71 11.87L399.71 11.87Q400.33 11.87 400.33 11.70L400.33 11.70L400.33 11.70Q400.33 11.63 400.19 11.27L400.19 11.27L399.15 8.72L395.90 8.72L394.80 11.18L394.80 11.18Q394.66 11.50 394.66 11.63L394.66 11.63L394.66 11.63Q394.66 11.79 394.75 11.83L394.75 11.83L394.75 11.83Q394.85 11.87 395.23 11.87L395.23 11.87L395.81 11.87L395.81 12.41L393.09 12.41ZM397.58 4.79L396.17 8.10L398.91 8.10L397.58 4.79ZM410.55 3.64L410.16 3.64L410.18 3.08L413.40 3.08L413.40 3.08Q414.53 3.08 415.13 3.21L415.13 3.21L415.13 3.21Q415.78 3.37 416.24 3.75L416.24 3.75L416.24 3.75Q417.25 4.57 417.25 5.71L417.25 5.71L417.25 5.71Q417.25 6.43 416.77 7.04L416.77 7.04L416.77 7.04Q416.28 7.66 415.25 7.92L415.25 7.92L417.94 11.49L417.94 11.49Q418.24 11.87 418.54 11.87L418.54 11.87L419.14 11.87L419.17 12.41L417.14 12.41L414.14 8.10L413.97 8.10L413.97 8.10Q413.93 8.10 413.88 8.11L413.88 8.11L413.88 8.11Q413.82 8.11 413.81 8.11L413.81 8.11L413.81 8.11Q412.92 8.11 412.53 8.03L412.53 8.03L412.53 11.46L412.53 11.46Q412.53 11.76 412.67 11.81L412.67 11.81L412.67 11.81Q412.79 11.87 413.50 11.87L413.50 11.87L414.21 11.87L414.18 12.41L410.46 12.41L410.46 11.87L410.78 11.87L410.78 11.87Q411.24 11.87 411.31 11.81L411.31 11.81L411.31 11.81Q411.39 11.74 411.39 11.46L411.39 11.46L411.39 4.14L411.39 4.14Q411.39 3.82 411.20 3.73L411.20 3.73L411.20 3.73Q410.98 3.64 410.55 3.64L410.55 3.64ZM412.53 4.28L412.53 7.57L412.53 7.57Q412.71 7.70 413.42 7.71L413.42 7.71L413.42 7.71Q414.70 7.71 415.28 7.27L415.28 7.27L415.28 7.27Q415.86 6.84 415.86 5.92L415.86 5.92L415.86 5.92Q415.86 4.92 415.09 4.27L415.09 4.27L415.09 4.27Q414.33 3.64 412.95 3.64L412.95 3.64L412.95 3.64Q412.70 3.64 412.62 3.75L412.62 3.75L412.62 3.75Q412.54 3.84 412.53 4.28L412.53 4.28ZM426.93 12.41L426.92 11.87L427.09 11.87L427.09 11.87Q427.48 11.87 427.61 11.73L427.61 11.73L427.61 11.73Q427.73 11.57 428.07 10.83L428.07 10.83L428.98 8.82L429.55 7.53L429.55 7.53Q429.82 6.97 429.86 6.86L429.86 6.86L429.86 6.86Q429.93 6.70 429.98 6.60L429.98 6.60L429.98 6.60Q430.03 6.51 430.04 6.45L430.04 6.45L430.14 6.21L431.57 2.74L431.86 2.74L431.86 2.74Q432.71 4.98 434.90 10.25L434.90 10.25L434.90 10.25Q435.35 11.34 435.54 11.64L435.54 11.64L435.54 11.64Q435.68 11.87 436.12 11.87L436.12 11.87L436.33 11.87L436.32 12.41L433.13 12.41L433.14 11.87L433.56 11.87L433.56 11.87Q434.17 11.87 434.17 11.70L434.17 11.70L434.17 11.70Q434.17 11.63 434.03 11.27L434.03 11.27L433.00 8.72L429.75 8.72L428.64 11.18L428.64 11.18Q428.50 11.50 428.50 11.63L428.50 11.63L428.50 11.63Q428.50 11.79 428.60 11.83L428.60 11.83L428.60 11.83Q428.70 11.87 429.08 11.87L429.08 11.87L429.65 11.87L429.65 12.41L426.93 12.41ZM431.43 4.79L430.01 8.10L432.76 8.10L431.43 4.79Z"></path></g></svg>