<svg data-v-fde0c5aa="" xmlns="http://www.w3.org/2000/svg" viewBox="0 0 300 300" class="font"><!----><defs data-v-fde0c5aa=""><!----></defs><rect data-v-fde0c5aa="" fill="#DB3860" x="0" y="0" width="300px" height="300px" class="logo-background-square"></rect><defs data-v-fde0c5aa=""><!----></defs><g data-v-fde0c5aa="" id="93a72b81-815c-4440-b11b-165ffb059def" fill="#1B3A55" transform="matrix(5.98639455782313,0,0,5.98639455782313,37.964625828931105,97.76870805390027)"><path d="M0.34 5.47L3.54 5.47L3.54 13.65L4.76 13.65L4.76 5.47L7.97 5.47L7.97 4.40L0.34 4.40ZM13.02 13.75L13.24 12.77C12.39 12.92 12.45 12.42 12.45 11.91L12.45 9.37C12.45 7.74 11.77 7.03 10.12 7.03C8.26 7.03 7.41 7.81 7.56 9.04L8.67 9.24C8.60 8.29 9.17 7.95 10.04 7.95C11.03 7.95 11.33 8.41 11.33 9.52L11.33 9.88C8.90 9.90 7.34 10.64 7.34 12.11C7.34 13.29 8.33 13.85 9.37 13.85C10.37 13.85 11.13 13.29 11.44 12.71C11.48 13.30 11.80 13.90 13.02 13.75ZM11.33 11.42C11.27 12.25 10.43 12.92 9.58 12.92C8.92 12.92 8.54 12.57 8.54 12.03C8.54 11.20 9.35 10.75 11.33 10.74ZM18.55 13.65L19.99 13.65L17.12 10.12L20.03 7.22L18.59 7.22L16.09 9.72L15.81 9.72L15.81 3.60L14.69 3.60L14.69 13.65L15.81 13.65L15.81 10.61L16.11 10.61ZM26.57 13.75L26.80 12.77C25.94 12.92 26.00 12.42 26.00 11.91L26.00 9.37C26.00 7.74 25.33 7.03 23.67 7.03C21.81 7.03 20.96 7.81 21.11 9.04L22.22 9.24C22.15 8.29 22.72 7.95 23.59 7.95C24.58 7.95 24.88 8.41 24.88 9.52L24.88 9.88C22.46 9.90 20.89 10.64 20.89 12.11C20.89 13.29 21.88 13.85 22.92 13.85C23.93 13.85 24.68 13.29 24.99 12.71C25.03 13.30 25.35 13.90 26.57 13.75ZM24.88 11.42C24.82 12.25 23.98 12.92 23.13 12.92C22.47 12.92 22.09 12.57 22.09 12.03C22.09 11.20 22.90 10.75 24.88 10.74ZM28.24 13.65L29.36 13.65L29.36 3.60L28.24 3.60ZM34.12 13.85C36.20 13.85 37.09 12.32 37.09 10.33C37.09 8.25 36.09 7.03 34.12 7.03C32.07 7.03 31.12 8.44 31.12 10.33C31.12 12.47 32.00 13.85 34.12 13.85ZM34.12 12.92C32.96 12.92 32.33 12.08 32.33 10.47C32.33 8.88 32.96 7.95 34.12 7.95C35.27 7.95 35.88 8.85 35.88 10.47C35.88 11.96 35.27 12.92 34.12 12.92Z"></path></g><!----><!----></svg>